# xmcd CD database file
#
# Track frame offsets:
#	150
#	21160
#	39947
#	57170
#	85335
#	109857
#	128000
#	144375
#	169240
#	188745
#	223625
#	245642
#
# Disc length: 3519 seconds
#
# Revision: 0
# Processed by: cddbd v1.5.2PL0 Copyright (c) Steve Scherf et al.
# Submitted via: CDex 1.70beta2
#
DISCID=a30dbd0c
DTITLE=The Judge and his Chicago Gang - Chicago Hot Stuff - CD 1
DYEAR=1996
DGENRE=Jazz
TTITLE0=01-Riverboat Shuffle
TTITLE1=02-Mighty Like The Blues
TTITLE2=03-My Monday Date
TTITLE3=04-Nothin' Doin
TTITLE4=05-You'd Be So Nice To Come Home
TTITLE5=06-Champagne And Pheasant
TTITLE6=07-That DaDa Strain
TTITLE7=08-I'll Never Be The Same
TTITLE8=09-Nice Work If You Can Get It
TTITLE9=10-Autumn Affair
TTITLE10=11-Someday Sweetheart
TTITLE11=12-'Deed I Do
EXTD=YEAR: 1996
EXTT0=
EXTT1=
EXTT2=
EXTT3=
EXTT4=
EXTT5=
EXTT6=
EXTT7=
EXTT8=
EXTT9=
EXTT10=
EXTT11=
PLAYORDER=
